HIERARCHY
ROOT Hips
{
	OFFSET	0.00	0.00	0.00
	CHANNELS 6 Xposition Yposition Zposition Zrotation Xrotation Yrotation
	JOINT LeftUpLeg
	{
		OFFSET	 0.126116	-0.014019	-0.065224
		CHANNELS 3 Zrotation Xrotation Yrotation
		JOINT LeftLeg
		{
			OFFSET	 0.000000	 0.000000	 0.569914
			CHANNELS 3 Zrotation Xrotation Yrotation
			JOINT LeftFoot
			{
				OFFSET	 0.000000	 0.000000	 0.544423
				CHANNELS 3 Zrotation Xrotation Yrotation
				JOINT LeftToeBase
				{
					OFFSET	 0.000000	 0.000000	 0.207117
					CHANNELS 3 Zrotation Xrotation Yrotation
					End Site
					{
						OFFSET	 0.000000	 0.000000	 0.207117
					}
				}
			}
		}
	}
	JOINT RightUpLeg
	{
		OFFSET	-0.124023	-0.008373	-0.065224
		CHANNELS 3 Zrotation Xrotation Yrotation
		JOINT RightLeg
		{
			OFFSET	 0.000000	 0.000000	 0.570047
			CHANNELS 3 Zrotation Xrotation Yrotation
			JOINT RightFoot
			{
				OFFSET	 0.000000	 0.000000	 0.544354
				CHANNELS 3 Zrotation Xrotation Yrotation
				JOINT RightToeBase
				{
					OFFSET	 0.000000	 0.000000	 0.207540
					CHANNELS 3 Zrotation Xrotation Yrotation
					End Site
					{
						OFFSET	 0.000000	 0.000000	 0.207540
					}
				}
			}
		}
	}
	JOINT Spine
	{
		OFFSET	 0.000184	-0.007763	 0.117403
		CHANNELS 3 Zrotation Xrotation Yrotation
		JOINT Spine1
		{
			OFFSET	 0.000000	 0.000000	 0.137269
			CHANNELS 3 Zrotation Xrotation Yrotation
			JOINT Spine2
			{
				OFFSET	 0.000000	 0.000000	 0.156879
				CHANNELS 3 Zrotation Xrotation Yrotation
				JOINT LeftShoulder
				{
					OFFSET	 0.080501	-0.002496	 0.160144
					CHANNELS 3 Zrotation Xrotation Yrotation
					JOINT LeftArm
					{
						OFFSET	 0.000000	 0.000000	 0.164363
						CHANNELS 3 Zrotation Xrotation Yrotation
						JOINT LeftForeArm
						{
							OFFSET	 0.000000	 0.000000	 0.364576
							CHANNELS 3 Zrotation Xrotation Yrotation
							JOINT LeftHand
							{
								OFFSET	 0.000000	 0.000000	 0.360812
								CHANNELS 3 Zrotation Xrotation Yrotation
								JOINT LeftHandIndex1
								{
									OFFSET	 0.000000	 0.000000	 0.086006
									CHANNELS 3 Zrotation Xrotation Yrotation
									JOINT LeftHandIndex2
									{
										OFFSET	 0.000000	 0.000000	 0.047237
										CHANNELS 3 Zrotation Xrotation Yrotation
										JOINT LeftHandIndex3
										{
											OFFSET	-0.004284	-0.000551	 0.038165
											CHANNELS 3 Zrotation Xrotation Yrotation
											End Site
											{
												OFFSET	-0.004284	-0.000551	 0.038165
											}
										}
									}
								}
							}
						}
					}
				}
				JOINT Neck
				{
					OFFSET	 0.000000	 0.000000	 0.176489
					CHANNELS 3 Zrotation Xrotation Yrotation
					JOINT Head
					{
						OFFSET	 0.000000	-0.001747	 0.077940
						CHANNELS 3 Zrotation Xrotation Yrotation
						End Site
						{
							OFFSET	 0.000000	-0.001747	 0.077940
						}
					}
				}
				JOINT RightShoulder
				{
					OFFSET	-0.080363	 0.000306	 0.159706
					CHANNELS 3 Zrotation Xrotation Yrotation
					JOINT RightArm
					{
						OFFSET	 0.000000	 0.000000	 0.164196
						CHANNELS 3 Zrotation Xrotation Yrotation
						JOINT RightForeArm
						{
							OFFSET	 0.000000	 0.000000	 0.365611
							CHANNELS 3 Zrotation Xrotation Yrotation
							JOINT RightHand
							{
								OFFSET	 0.000000	 0.000000	 0.360648
								CHANNELS 3 Zrotation Xrotation Yrotation
								JOINT RightHandIndex1
								{
									OFFSET	 0.000000	 0.000000	 0.069977
									CHANNELS 3 Zrotation Xrotation Yrotation
									JOINT RightHandIndex2
									{
										OFFSET	 0.000000	 0.000000	 0.052305
										CHANNELS 3 Zrotation Xrotation Yrotation
										JOINT RightHandIndex3
										{
											OFFSET	 0.009002	-0.000782	 0.042196
											CHANNELS 3 Zrotation Xrotation Yrotation
											End Site
											{
												OFFSET	 0.009002	-0.000782	 0.042196
											}
										}
									}
								}
							}
						}
					}
				}
			}
		}
	}
}
MOTION
Frames:    7
Frame Time: 0.03333334
-0.719864	-0.006624	 1.270611	-176.138000	-7.052670	 0.145038	-15.254440	 3.362719	-175.593200	-6.431539	-16.160990	-2.210430	 20.976680	 72.879010	-30.333940	-2.385833	 28.452760	 0.000004	 17.560270	 4.709966	 173.134400	 3.564023	-14.123290	 0.924703	-20.905600	 70.474190	 28.123980	 2.384659	 28.388700	-0.000001	-1.548398	 7.570634	-2.662378	 0.018498	 10.991870	 7.252076	-6.997157	-9.783637	-7.893412	-91.776200	 78.527380	-180.000000	-9.648794	 17.541460	 24.196800	-16.961780	-4.897688	-73.709170	-1.930630	-11.087330	-2.396668	-4.130354	 21.526190	 0.991307	-5.167926	 0.731697	 3.519349	-1.378229	 35.397820	-2.634230	-9.261493	 1.377050	 4.869359	-6.464607	-17.342370	-6.897448	 89.782220	 78.203890	 179.999900	 19.840310	 10.459030	-18.344330	 10.831960	-3.289418	 72.047270	 49.746090	 39.665490	-3.644046	 5.716295	 19.173350	-3.684826	 5.027458	 0.246833	-9.377971	-2.350882	 35.473990	 5.254307
-0.720045	-0.006832	 1.269567	-176.061300	-7.196415	-0.039616	-15.081960	 2.828184	-175.524000	-6.579309	-18.461830	-2.562133	 21.805820	 74.664500	-31.089500	-2.385833	 28.452760	 0.000004	 17.518970	 4.769861	 173.089200	 3.602911	-15.765110	 1.040207	-23.385350	 71.792470	 30.642680	 2.384659	 28.388700	-0.000001	-2.376661	 7.795333	-2.386839	-0.680439	 9.804529	 6.952987	-6.800691	-8.999800	-7.598988	-91.776150	 78.527360	 180.000000	-10.537070	 27.456270	 28.620640	-17.867960	-5.413748	-84.471990	-2.007897	-11.069530	-2.417209	-4.130354	 21.526190	 0.991307	-5.167926	 0.731697	 3.519349	-1.378229	 35.397820	-2.634230	-9.182150	 1.259816	 4.830906	-6.399489	-17.088110	-6.841740	 89.782160	 78.203920	 179.999900	 15.428100	 18.402480	-21.701480	 11.507720	-3.493432	 83.637340	 45.271190	 32.744770	 0.779851	 5.716295	 19.173350	-3.684826	 5.027458	 0.246833	-9.377971	-2.350882	 35.473990	 5.254307
-0.720235	-0.007035	 1.268487	-176.065400	-7.261833	-0.270786	-14.775720	 2.379282	-175.468200	-6.760243	-20.505260	-2.898241	 22.055850	 76.236500	-31.196470	-2.385833	 28.452760	 0.000004	 17.647810	 4.821053	 173.074500	 3.560956	-17.331980	 1.127995	-26.492850	 73.072520	 33.883680	 2.384659	 28.388700	-0.000001	-3.215460	 7.921556	-1.954816	-1.427925	 8.521324	 6.399282	-6.524744	-8.128136	-7.160075	-91.776200	 78.527380	-180.000000	-10.838620	 38.607980	 31.022430	-18.524480	-5.574374	-91.372570	-2.174867	-11.098440	-2.429278	-4.130354	 21.526190	 0.991307	-5.167926	 0.731697	 3.519349	-1.378229	 35.397820	-2.634230	-8.991727	 0.980822	 4.659091	-6.260362	-16.679910	-6.395468	 89.782120	 78.203850	 180.000000	 9.249475	 27.275700	-22.092220	 12.031390	-3.724959	 92.067330	 38.129920	 26.217480	 6.161217	 5.716295	 19.173350	-3.684826	 5.027458	 0.246833	-9.377971	-2.350882	 35.473990	 5.254307
-0.720421	-0.007289	 1.267171	-176.072300	-7.322886	-0.488849	-14.455340	 1.926976	-175.481700	-6.976807	-22.878930	-3.301798	 22.627920	 78.180100	-31.601490	-2.385833	 28.452760	 0.000004	 17.769350	 5.078795	 172.994000	 3.507290	-18.870890	 1.207209	-30.569200	 74.398000	 38.103210	 2.384659	 28.388700	-0.000001	-4.278699	 8.075890	-1.498588	-2.397617	 6.862787	 5.627857	-6.200256	-6.998333	-6.566974	-91.776180	 78.527400	-180.000000	-9.150469	 53.100160	 29.789290	-18.763910	-5.724962	-93.732350	-2.340510	-11.106210	-2.444316	-4.130354	 21.526190	 0.991307	-5.167926	 0.731697	 3.519349	-1.378229	 35.397820	-2.634230	-8.785555	 0.692523	 4.497674	-6.108696	-16.211810	-5.983230	 89.782040	 78.203830	-180.000000	-1.449989	 38.830150	-17.049150	 12.426840	-3.988525	 97.571860	 27.057530	 18.228380	 12.769690	 5.716295	 19.173350	-3.684826	 5.027458	 0.246833	-9.377971	-2.350882	 35.473990	 5.254307
-0.720700	-0.008092	 1.264230	-176.111300	-7.195931	 0.024999	-13.927500	 0.790149	-176.674300	-7.374012	-29.192190	-4.336691	 33.995890	 84.105690	-42.835470	-2.385833	 28.452760	 0.000004	 18.154370	 6.521876	 171.817400	 3.279037	-20.157950	 1.207264	-37.034010	 76.269110	 44.749150	 2.384659	 28.388700	-0.000001	-7.067463	 9.049421	-1.831248	-5.193574	 0.798360	 3.295973	-5.236207	-2.600096	-4.555112	-91.776130	 78.527400	 180.000000	 32.730480	 77.129970	-28.109010	-15.456750	-5.546325	-62.060600	-2.156667	-10.814120	-2.500551	-4.130354	 21.526190	 0.991307	-5.167926	 0.731697	 3.519349	-1.378229	 35.397820	-2.634230	-8.210786	 0.358719	 4.428246	-5.650154	-14.663660	-6.329175	 89.782160	 78.203890	 179.999900	-50.048730	 56.337000	 32.357690	 11.211000	-5.924783	 83.382750	-3.607157	-1.352624	 29.297520	 5.716295	 19.173350	-3.684826	 5.027458	 0.246833	-9.377971	-2.350882	 35.473990	 5.254307
-0.721933	-0.008588	 1.264676	-176.295100	-6.469446	 0.061117	-12.966480	-0.101995	-177.189400	-7.503638	-30.978850	-4.643513	 37.897320	 85.481040	-46.658980	-2.385833	 28.452760	 0.000004	 19.015940	 6.172840	 171.730700	 3.203790	-20.987000	 1.227674	-40.211270	 77.498880	 47.876340	 2.384659	 28.388700	-0.000001	-8.314523	 9.927511	-1.639489	-6.667348	-4.248668	 1.483188	-4.489948	 1.277251	-3.107508	-91.776180	 78.527400	 180.000000	 41.969540	 75.984850	-57.237620	-12.541870	-2.450171	-22.650920	-2.169048	-10.935120	-2.473902	-4.130354	 21.526190	 0.991307	-5.167926	 0.731697	 3.519349	-1.378229	 35.397820	-2.634230	-7.356668	-0.250633	 3.772424	-5.091070	-12.946530	-5.654279	 89.782200	 78.203900	 179.999900	-67.508320	 53.178990	 54.804890	 9.652514	-6.892448	 71.912700	-12.637200	-7.532577	 33.817370	 5.716295	 19.173350	-3.684826	 5.027458	 0.246833	-9.377971	-2.350882	 35.473990	 5.254307
-0.725003	-0.009681	 1.268863	-177.210400	-5.684032	-0.153009	-11.544450	-0.770576	-176.900000	-7.893859	-29.737250	-4.672855	 37.803100	 84.778620	-46.224750	-2.385833	 28.452760	 0.000004	 20.423950	 4.326059	 172.531100	 3.021110	-21.861410	 1.208136	-37.488250	 77.914740	 45.210460	 2.384659	 28.388700	-0.000001	-7.566880	 11.410420	-1.492622	-6.889175	-8.891286	 1.111270	-3.987417	 5.657299	-2.528614	-91.776170	 78.527420	-180.000000	 36.462020	 75.229030	-40.121900	-14.414300	-3.859607	-44.075800	-1.990823	-11.067100	-2.418287	-4.130354	 21.526190	 0.991307	-5.167926	 0.731697	 3.519349	-1.378229	 35.397820	-2.634230	-6.719842	-0.596543	 3.249309	-4.672512	-10.742780	-5.183941	 89.782200	 78.203850	 179.999900	-61.142260	 51.783080	 43.653880	 12.232290	-8.498918	 92.267110	-11.784190	 2.379776	 21.689870	 5.716295	 19.173350	-3.684826	 5.027458	 0.246833	-9.377971	-2.350882	 35.473990	 5.254307
